<?xml version="1.0" encoding="UTF-8"?>
<svg width="10px" height="10px" viewBox="0 0 10 10" version="1.1" xmlns="http://www.w3.org/2000/svg" xmlns:xlink="http://www.w3.org/1999/xlink">
    <!-- Generator: sketchtool 52.5 (67469) - http://www.bohemiancoding.com/sketch -->
    <title>A58C7D0A-DB9E-4D95-9D53-FFE74F3E1FC1</title>
    <desc>Created with sketchtool.</desc>
    <g id="Page-1" stroke="none" stroke-width="1" fill="none" fill-rule="evenodd" fill-opacity="0.54">
        <g id="My-Account-Interactions" transform="translate(-832.000000, -332.000000)" fill="#000000">
            <g id="ic-close-sm-grey" transform="translate(832.000000, 332.000000)">
                <path d="M9.74159489,1.60805445 L6.28507919,5 L9.74159489,8.39194555 C10.0750208,8.72093023 10.0750208,9.26545661 9.74159489,9.59444129 L9.58599611,9.74191719 C9.25257016,10.0709019 8.69686024,10.0709019 8.36343429,9.74191719 L4.99583218,6.44072604 L1.62823006,9.75326149 C1.29480411,10.0822462 0.739094193,10.0822462 0.405668241,9.75326149 L0.250069464,9.60578559 C-0.0833564879,9.27680091 -0.0833564879,8.73227453 0.250069464,8.40328985 L3.70658516,5 L0.250069464,1.60805445 C-0.0833564879,1.27906977 -0.0833564879,0.734543392 0.250069464,0.405558707 L0.405668241,0.258082813 C0.739094193,-0.0709018718 1.29480411,-0.0709018718 1.62823006,0.258082813 L4.99583218,3.55927396 L8.36343429,0.246738514 C8.69686024,-0.0822461713 9.25257016,-0.0822461713 9.58599611,0.246738514 L9.74159489,0.394214407 C10.086135,0.734543392 10.086135,1.26772547 9.74159489,1.60805445 Z"></path>
            </g>
        </g>
    </g>
</svg>