<?xml version="1.0" encoding="UTF-8"?>
<svg width="10px" height="6px" viewBox="0 0 10 6" version="1.1" xmlns="http://www.w3.org/2000/svg" xmlns:xlink="http://www.w3.org/1999/xlink">
    <!-- Generator: sketchtool 59.1 (101010) - https://sketch.com -->
    <title>D249338F-1413-476C-9182-724BB50F1A21</title>
    <desc>Created with sketchtool.</desc>
    <g id="Page-1" stroke="none" stroke-width="1" fill="none" fill-rule="evenodd">
        <g id="Term-Insurance-01" transform="translate(-666.000000, -652.000000)" fill="#6C757D">
            <g id="Max-Form" transform="translate(223.000000, 418.000000)">
                <g id="Form" transform="translate(247.000000, 148.000000)">
                    <g id="Date-of-Birth" transform="translate(0.000000, 66.000000)">
                        <g id="Group" transform="translate(158.000000, 14.000000)">
                            <path d="M47.7624646,6.68432203 L47.2811667,6.2260101 C47.1143794,6.07535097 46.9195806,6 46.69722,6 C46.4702732,6 46.27779,6.07535097 46.1194556,6.2260101 L43.0000225,9.19557867 L39.8806118,6.2260957 C39.7222999,6.07543657 39.5297717,6.0000856 39.3029149,6.0000856 C39.0804419,6.0000856 38.8856881,6.07543657 38.7188783,6.2260957 L38.2438975,6.68440764 C38.0812692,6.83911145 38,7.02450351 38,7.2404126 C38,7.46034498 38.0813591,7.64363979 38.243875,7.79025424 L42.4223031,11.767848 C42.576411,11.9225732 42.7688718,12 43,12 C43.2267894,12 43.4215207,11.9225946 43.5839917,11.767848 L47.7624422,7.79025424 C47.9207766,7.6395095 48,7.45623609 48,7.2404126 C48,7.02852679 47.9207991,6.84324174 47.7624646,6.68432203 Z" id="ic-chevron-down"></path>
                        </g>
                    </g>
                </g>
            </g>
        </g>
    </g>
</svg>