<?xml version="1.0" encoding="UTF-8"?>
<svg width="45px" height="52px" viewBox="0 0 45 52" version="1.1" xmlns="http://www.w3.org/2000/svg" xmlns:xlink="http://www.w3.org/1999/xlink">
    <!-- Generator: Sketch 63.1 (92452) - https://sketch.com -->
    <title>ic-like</title>
    <desc>Created with Sketch.</desc>
    <g id="Page-1" stroke="none" stroke-width="1" fill="none" fill-rule="evenodd">
        <g id="Loader01" transform="translate(-983.000000, -334.000000)" fill-rule="nonzero">
            <g id="Group" transform="translate(755.000000, 255.000000)">
                <g id="ic-like" transform="translate(228.000000, 79.000000)">
                    <path d="M45,33.2 C45,31.55 43.65,30.2 42,30.2 C43.65,30.2 45,28.85 45,27.2 C45,25.55 43.65,24.2 42,24.2 L29.7001,24.2 C31.53,18.7099 31.5,16.96 31.5,13.6 C31.5,11.1039 29.4534,9.1 27,9.1 L26.1,9.1 C25.53,9.1 24.81,9.5501 24.6599,10.24 C23.1758,16.0181 20.8555,22.6484 15,23.9914 L15,45.6976 L20.1899,47.4199 C21.7199,47.9298 23.31,48.1999 24.93,48.1999 L39,48.1999 C40.6569,48.1999 42,46.8567 42,45.2 C42,43.5431 40.6569,42.2 39,42.2 L42,42.2 C43.65,42.2 45,40.85 45,39.2 C45,37.55 43.65,36.2 42,36.2 C43.65,36.2 45,34.85 45,33.2 Z" id="Path" fill="#D1D6DF"></path>
                    <path d="M7.5,21.2 C9.9814,21.2 12,23.2186 12,25.7 L12,25.7 L12,46.7 C12,49.1814 9.9814,51.2 7.5,51.2 L7.5,51.2 L1.5,51.2 C0.6709,51.2 0,50.5291 0,49.7 L0,49.7 L0,22.7 C0,21.8709 0.6709,21.2 1.5,21.2 L1.5,21.2 Z M7.5,42.2 C6.6716,42.2 6,42.8714 6,43.7 C6,44.5284 6.6716,45.2 7.5,45.2 C8.3284,45.2 9,44.5284 9,43.7 C9,42.8714 8.3284,42.2 7.5,42.2 Z" id="Combined-Shape" fill="#0A2134"></path>
                    <path d="M20.6353,6.6142 L18.5142,4.4931 C17.9283,3.9072 16.979,3.9072 16.3931,4.4931 C15.8072,5.079 15.8072,6.0283 16.3931,6.6142 L18.5142,8.7353 C19.1001,9.3212 20.0493,9.3212 20.6353,8.7353 C21.2212,8.1494 21.2212,7.2001 20.6353,6.6142 Z" id="Path" fill="#BFCC29"></path>
                    <path d="M37.6069,4.4931 C37.021,3.9072 36.0717,3.9072 35.4858,4.4931 L33.3647,6.6142 C32.7788,7.2001 32.7788,8.1494 33.3647,8.7353 C33.9506,9.3212 34.8999,9.3212 35.4858,8.7353 L37.6069,6.6142 C38.1928,6.0283 38.1928,5.079 37.6069,4.4931 Z" id="Path" fill="#BFCC29"></path>
                    <path d="M27,0 C26.1599,0 25.5,0.6599 25.5,1.5 L25.5,4.6 C25.5,5.4401 26.1599,6.1 27,6.1 C27.8401,6.1 28.5,5.4401 28.5,4.6 L28.5,1.5 C28.5,0.6599 27.8401,0 27,0 Z" id="Path" fill="#BFCC29"></path>
                </g>
            </g>
        </g>
    </g>
</svg>