<?xml version="1.0" encoding="UTF-8"?>
<svg width="10px" height="12px" viewBox="0 0 10 12" version="1.1" xmlns="http://www.w3.org/2000/svg" xmlns:xlink="http://www.w3.org/1999/xlink">
    <!-- Generator: Sketch 63.1 (92452) - https://sketch.com -->
    <title>ic-rupee</title>
    <desc>Created with Sketch.</desc>
    <g id="Page-1" stroke="none" stroke-width="1" fill="none" fill-rule="evenodd">
        <g id="CCHighlightForm" transform="translate(-894.000000, -469.000000)" fill="#4A4A4A" fill-rule="nonzero">
            <g id="CC" transform="translate(842.000000, 100.000000)">
                <g id="01" transform="translate(32.000000, 194.000000)">
                    <g id="Monthly-Income" transform="translate(0.000000, 158.000000)">
                        <g id="Select">
                            <path d="M29.536021,29 L26.3403491,24.7674345 C27.3602444,24.2234904 27.9891798,23.3055846 28.1931588,22.0817103 L29.536021,22.0817103 L29.536021,20.4158813 L28.1931588,20.4158813 C28.1081676,19.8209424 27.8871903,19.3109947 27.5812217,18.8690401 L29.536021,18.8690401 L29.536021,17.1012216 L20.5099476,17.1012216 L20.5099476,18.8860384 L23.467644,18.8860384 C24.9634904,18.8860384 25.932391,19.3789877 26.2553578,20.4158813 L20.5099476,20.4158813 L20.5099476,22.0817103 L26.2383595,22.0817103 C25.9153927,23.1186038 24.9464922,23.6285515 23.467644,23.6285515 L20.5099476,23.6285515 L20.5099476,25.4133682 L23.467644,25.4133682 C23.8416056,25.4133682 24.198569,25.39637 24.5215358,25.3453752 L27.2582548,29 L29.536021,29 Z" id="ic-rupee"></path>
                        </g>
                    </g>
                </g>
            </g>
        </g>
    </g>
</svg>