<?xml version="1.0" encoding="UTF-8"?>
<svg width="320px" height="280px" viewBox="0 0 320 280" version="1.1" xmlns="http://www.w3.org/2000/svg" xmlns:xlink="http://www.w3.org/1999/xlink">
    <!-- Generator: Sketch 63.1 (92452) - https://sketch.com -->
    <title>Spritesheet</title>
    <desc>Created with Sketch.</desc>
    <g id="Spritesheet" stroke="none" stroke-width="1" fill="none" fill-rule="evenodd">
        <g id="ic-professional">
            <circle id="Oval" fill="#00559C" cx="15" cy="15" r="15"></circle>
            <path d="M21.5624726,10.2809524 C20.8631974,9.99371429 19.7292016,10.0952381 18.9647848,10.0952381 L18.9647848,9.16666667 C18.9647848,7.97190476 17.9211897,7 16.6382989,7 L13.3147476,7 C12.0318567,7 10.9882616,7.97190476 10.9882616,9.16666667 L10.9882616,10.0952381 C10.2810099,10.0952381 9.02736632,10.0234286 8.40785635,10.2722857 C8.40253867,10.2747619 8.39722098,10.2784762 8.39057388,10.2809524 C7.57430967,10.6177143 7,11.3779048 7,12.2619048 L7,17.8333333 C7,19.0280952 8.04359512,20 9.32648594,20 L20.6265605,20 C21.9094513,20 22.9530464,19.0280952 22.9530464,17.8333333 C22.9530464,12.4228571 23.3957435,11.0361905 21.5624726,10.2809524 Z M12.9823924,9.16666667 C12.9823924,8.99580952 13.1312875,8.85714286 13.3147476,8.85714286 L16.6382989,8.85714286 C16.8217589,8.85714286 16.970654,8.99580952 16.970654,9.16666667 L16.970654,10.0952381 L12.9823924,10.0952381 L12.9823924,9.16666667 Z M14.9765232,16.2857143 C14.5776971,16.2857143 9.34908609,13.669619 8.99413081,13.4975238 C8.99413081,11.7592381 8.79471773,11.952381 10.1241383,11.952381 L14.9765232,14.3097143 L19.8289082,11.952381 C21.17827,11.952381 20.9589156,11.7778095 20.9589156,13.4975238 C20.6039604,13.669619 15.3753494,16.2857143 14.9765232,16.2857143 Z" fill="#FFFFFF" fill-rule="nonzero"></path>
        </g>
        <g id="ic-professional" transform="translate(40.000000, 0.000000)">
            <circle id="Oval" fill="#EBEBEB" cx="15" cy="15" r="15"></circle>
            <path d="M21.5624726,10.2809524 C20.8631974,9.99371429 19.7292016,10.0952381 18.9647848,10.0952381 L18.9647848,9.16666667 C18.9647848,7.97190476 17.9211897,7 16.6382989,7 L13.3147476,7 C12.0318567,7 10.9882616,7.97190476 10.9882616,9.16666667 L10.9882616,10.0952381 C10.2810099,10.0952381 9.02736632,10.0234286 8.40785635,10.2722857 C8.40253867,10.2747619 8.39722098,10.2784762 8.39057388,10.2809524 C7.57430967,10.6177143 7,11.3779048 7,12.2619048 L7,17.8333333 C7,19.0280952 8.04359512,20 9.32648594,20 L20.6265605,20 C21.9094513,20 22.9530464,19.0280952 22.9530464,17.8333333 C22.9530464,12.4228571 23.3957435,11.0361905 21.5624726,10.2809524 Z M12.9823924,9.16666667 C12.9823924,8.99580952 13.1312875,8.85714286 13.3147476,8.85714286 L16.6382989,8.85714286 C16.8217589,8.85714286 16.970654,8.99580952 16.970654,9.16666667 L16.970654,10.0952381 L12.9823924,10.0952381 L12.9823924,9.16666667 Z M14.9765232,16.2857143 C14.5776971,16.2857143 9.34908609,13.669619 8.99413081,13.4975238 C8.99413081,11.7592381 8.79471773,11.952381 10.1241383,11.952381 L14.9765232,14.3097143 L19.8289082,11.952381 C21.17827,11.952381 20.9589156,11.7778095 20.9589156,13.4975238 C20.6039604,13.669619 15.3753494,16.2857143 14.9765232,16.2857143 Z" fill="#A3ADC0" fill-rule="nonzero"></path>
        </g>
        <g id="ic-personal" transform="translate(120.000000, 0.000000)">
            <circle id="Oval" fill="#EBEBEB" cx="15" cy="15" r="15"></circle>
            <path d="M18.0268999,14.2988725 C18.4049849,14.2988725 18.7584339,14.362793 19.0773704,14.4889693 C19.3974165,14.6158114 19.6741832,14.7897061 19.9002353,15.0059926 C20.1164107,15.2127353 20.3090598,15.4639782 20.473078,15.752508 C20.6311035,16.0304954 20.7589444,16.3205788 20.8529386,16.6143244 C20.9439364,16.8985263 21.019953,17.2094727 21.0789906,17.5383966 C21.1374734,17.8648793 21.1772017,18.1740501 21.1968439,18.4574751 C21.2162642,18.7344638 21.2262518,19.0235485 21.2262518,19.3166282 C21.2262518,20.0762385 20.9848855,20.6910289 20.5088112,21.1440208 C20.0386186,21.5914639 19.4168368,21.8182928 18.6604448,21.8182928 L18.6604448,21.8182928 L11.6567161,21.8182928 C10.900324,21.8182928 10.2783203,21.591353 9.80823864,21.1440208 C9.3322754,20.690696 9.09090909,20.0760165 9.09090909,19.3167392 C9.09090909,19.0249911 9.10067472,18.7361284 9.11998403,18.4578081 C9.13962625,18.1737172 9.17935457,17.8644354 9.23783736,17.5383966 C9.296875,17.2094727 9.37289151,16.8986372 9.46377841,16.6144354 C9.55788352,16.3204679 9.68572443,16.0304954 9.84363903,15.752508 C10.0074352,15.4640891 10.2001953,15.2129572 10.4162598,15.0061035 C10.6425337,14.7895952 10.9194114,14.6157005 11.2392356,14.4890803 C11.5580611,14.362793 11.9113991,14.2987615 12.2895952,14.2987615 C12.438077,14.2987615 12.5817871,14.3596857 12.8587757,14.5402388 C13.0320046,14.6530984 13.231756,14.781827 13.4524814,14.9228737 C13.6428001,15.0442782 13.9009233,15.1580256 14.2194159,15.2608976 C14.5308061,15.3615501 14.8465243,15.4125977 15.1582475,15.4125977 C15.4699707,15.4125977 15.7857999,15.3615501 16.0968572,15.2608976 C16.4156827,15.1579146 16.6738059,15.0441673 16.8643466,14.9227628 C17.0871804,14.7803844 17.2868209,14.6516557 17.4574973,14.5403498 C17.7348189,14.3597967 17.878418,14.2988725 18.0268999,14.2988725 Z M15.0668057,7.27272727 C16.0292747,7.27272727 16.862682,7.61796432 17.5438343,8.29889472 C18.2249867,8.98015801 18.5702237,9.81356534 18.5702237,10.7759233 C18.5702237,11.7386142 18.2249867,12.5719105 17.5439453,13.2529519 C16.8629039,13.9341042 16.0293857,14.2793412 15.0668057,14.2793412 C14.1044478,14.2793412 13.2710405,13.9339932 12.5898881,13.2530628 C11.9087358,12.5720215 11.5633878,11.7386142 11.5633878,10.7759233 C11.5633878,9.81345437 11.9087358,8.98004705 12.5897772,8.29900568 C13.2708185,7.61796432 14.1041149,7.27272727 15.0668057,7.27272727 Z" fill="#A3ADC0" fill-rule="nonzero"></path>
        </g>
        <g id="ic-personal" transform="translate(80.000000, 0.000000)">
            <circle id="Oval" fill="#00559C" cx="15" cy="15" r="15"></circle>
            <path d="M18.0268999,14.2988725 C18.4049849,14.2988725 18.7584339,14.362793 19.0773704,14.4889693 C19.3974165,14.6158114 19.6741832,14.7897061 19.9002353,15.0059926 C20.1164107,15.2127353 20.3090598,15.4639782 20.473078,15.752508 C20.6311035,16.0304954 20.7589444,16.3205788 20.8529386,16.6143244 C20.9439364,16.8985263 21.019953,17.2094727 21.0789906,17.5383966 C21.1374734,17.8648793 21.1772017,18.1740501 21.1968439,18.4574751 C21.2162642,18.7344638 21.2262518,19.0235485 21.2262518,19.3166282 C21.2262518,20.0762385 20.9848855,20.6910289 20.5088112,21.1440208 C20.0386186,21.5914639 19.4168368,21.8182928 18.6604448,21.8182928 L18.6604448,21.8182928 L11.6567161,21.8182928 C10.900324,21.8182928 10.2783203,21.591353 9.80823864,21.1440208 C9.3322754,20.690696 9.09090909,20.0760165 9.09090909,19.3167392 C9.09090909,19.0249911 9.10067472,18.7361284 9.11998403,18.4578081 C9.13962625,18.1737172 9.17935457,17.8644354 9.23783736,17.5383966 C9.296875,17.2094727 9.37289151,16.8986372 9.46377841,16.6144354 C9.55788352,16.3204679 9.68572443,16.0304954 9.84363903,15.752508 C10.0074352,15.4640891 10.2001953,15.2129572 10.4162598,15.0061035 C10.6425337,14.7895952 10.9194114,14.6157005 11.2392356,14.4890803 C11.5580611,14.362793 11.9113991,14.2987615 12.2895952,14.2987615 C12.438077,14.2987615 12.5817871,14.3596857 12.8587757,14.5402388 C13.0320046,14.6530984 13.231756,14.781827 13.4524814,14.9228737 C13.6428001,15.0442782 13.9009233,15.1580256 14.2194159,15.2608976 C14.5308061,15.3615501 14.8465243,15.4125977 15.1582475,15.4125977 C15.4699707,15.4125977 15.7857999,15.3615501 16.0968572,15.2608976 C16.4156827,15.1579146 16.6738059,15.0441673 16.8643466,14.9227628 C17.0871804,14.7803844 17.2868209,14.6516557 17.4574973,14.5403498 C17.7348189,14.3597967 17.878418,14.2988725 18.0268999,14.2988725 Z M15.0668057,7.27272727 C16.0292747,7.27272727 16.862682,7.61796432 17.5438343,8.29889472 C18.2249867,8.98015801 18.5702237,9.81356534 18.5702237,10.7759233 C18.5702237,11.7386142 18.2249867,12.5719105 17.5439453,13.2529519 C16.8629039,13.9341042 16.0293857,14.2793412 15.0668057,14.2793412 C14.1044478,14.2793412 13.2710405,13.9339932 12.5898881,13.2530628 C11.9087358,12.5720215 11.5633878,11.7386142 11.5633878,10.7759233 C11.5633878,9.81345437 11.9087358,8.98004705 12.5897772,8.29900568 C13.2708185,7.61796432 14.1041149,7.27272727 15.0668057,7.27272727 Z" fill="#FFFFFF" fill-rule="nonzero"></path>
        </g>
        <path d="M8.22418979,40.4394983 L9.91599975,43.7850905 C10.0336473,44.0177795 10.2611202,44.1790129 10.5242629,44.2162675 L14.3074466,44.752796 C14.970153,44.8468488 15.2345472,45.6414116 14.7551958,46.0973234 L12.0176989,48.7014864 C11.8274603,48.8825685 11.7404762,49.1436566 11.7855327,49.3992481 L12.4316558,53.076468 C12.5449229,53.7204853 11.8521788,54.2115142 11.2595603,53.9076748 L7.87594039,52.1716679 C7.6406452,52.0510483 7.3593548,52.0510483 7.12405961,52.1716679 L3.74043968,53.9076748 C3.14782121,54.2118195 2.45507712,53.7204853 2.56834422,53.076468 L3.21446732,49.3992481 C3.25952384,49.1436566 3.17253972,48.8825685 2.98230105,48.7014864 L0.244804215,46.0973234 C-0.234547157,45.6411063 0.0298470396,44.8465434 0.692553441,44.752796 L4.47573715,44.2162675 C4.73887978,44.1790129 4.96635265,44.0177795 5.08400025,43.7850905 L6.77581021,40.4394983 C7.07180656,39.8535006 7.92788055,39.8535006 8.22418979,40.4394983 Z" id="star5" fill="#FBBC00"></path>
        <g id="starbullet" transform="translate(140.000000, 40.000000)" fill="#BFCC29">
            <path d="M8.47553972,-8.8817842e-14 C9.2451703,-8.8817842e-14 10.0017868,0.102030937 10.7308665,0.301346257 L10.5898072,0.815687496 C11.2998767,1.0097642 11.9705615,1.29921599 12.5872388,1.66942007 L12.8625676,1.21264948 C13.5153568,1.60463229 14.1132595,2.08257699 14.6398733,2.63257301 L14.2549325,3.00171417 C14.7555967,3.52466156 15.1859852,4.11543682 15.5309278,4.75886959 L16.0010375,4.50699387 C16.360347,5.1772507 16.6287935,5.89361586 16.7978542,6.63947564 L16.277705,6.75732855 C16.4071822,7.32853915 16.4755397,7.92295336 16.4755397,8.53333333 C16.4755397,8.63795988 16.4735312,8.74211733 16.4695507,8.84576921 L17.0024741,8.86668021 C16.9729389,9.63473977 16.8413989,10.3870906 16.6132081,11.1087461 L16.1047998,10.9476076 C15.8818207,11.6528922 15.5637462,12.3159178 15.1656235,12.9216373 L15.6115068,13.2142679 C15.1933581,13.8505149 14.6916446,14.4286337 14.1208494,14.9325442 L13.7677455,14.5328417 C13.2254264,15.0115915 12.6176956,15.4179545 11.9596733,15.7368105 L12.1924991,16.2166403 C11.5086106,16.5480585 10.7820303,16.7869403 10.0291113,16.9254894 L9.93295755,16.4008952 C9.46038439,16.4878791 8.97327026,16.5333333 8.47553972,16.5333333 C8.26509712,16.5333333 8.05655234,16.5252078 7.85020202,16.5092533 L7.80982458,17.0410565 C7.04422464,16.9819284 6.29712203,16.8209544 5.58394241,16.5641263 L5.76413803,16.0621559 C5.06478552,15.8102535 4.41063965,15.463678 3.8171644,15.0378934 L3.50697558,15.471746 C2.88831846,15.0279905 2.33101255,14.5032045 1.85075211,13.9124 L2.26428959,13.5756042 C1.80903302,13.0154888 1.42801988,12.392603 1.13624134,11.7219379 L0.647103011,11.934513 C0.344217248,11.2382705 0.135321729,10.5027567 0.027497367,9.74400392 L0.555451618,9.66844567 C0.502784069,9.29765225 0.47553972,8.91867442 0.47553972,8.53333333 C0.47553972,8.21668836 0.493936042,7.90434008 0.529718206,7.59729897 L-5.32907052e-14,7.53530599 C0.088801306,6.77351639 0.279037922,6.033089 0.564060968,5.32983374 L1.0582564,5.53037145 C1.33917523,4.83718594 1.71444526,4.19232198 2.16813706,3.611709 L1.7479203,3.28328499 C2.21675263,2.68330339 2.76394513,2.14787665 3.37400337,1.69225218 L3.69282495,2.11980031 C4.26993201,1.68874121 4.90717042,1.33374523 5.58968329,1.06966931 L5.39693092,0.572385619 C6.10430422,0.298659917 6.84753714,0.120169892 7.6109703,0.0432971145 L7.66454071,0.57393322 C7.84233133,0.556033943 8.02183962,0.543955975 8.20287209,0.537892804 L8.47553972,0.533333333 L8.47553972,-8.8817842e-14 Z M9.04201706,3.00152252 C8.81023739,2.55504805 8.14059729,2.55504805 7.90906238,3.00152252 L7.90906238,3.00152252 L6.58569103,5.55054511 C6.49366446,5.72783201 6.31573012,5.85067647 6.10989411,5.87906098 L6.10989411,5.87906098 L3.15060374,6.28784455 C2.63222007,6.35927115 2.42540506,6.96465239 2.80036435,7.31224638 L2.80036435,7.31224638 L4.94169521,9.29637057 C5.09050412,9.43433793 5.15854504,9.6332622 5.12330082,9.82799859 L5.12330082,9.82799859 L4.61788898,12.6296899 C4.52928894,13.1203698 5.07116875,13.4947197 5.53472809,13.2629903 L5.53472809,13.2629903 L8.18147079,11.9403184 C8.36552392,11.8484177 8.58555552,11.8484177 8.76960865,11.9403184 L8.76960865,11.9403184 L11.4163513,13.2629903 C11.8799107,13.494487 12.4217905,13.1203698 12.3331905,12.6296899 L12.3331905,12.6296899 L11.8277786,9.82799859 C11.7925344,9.6332622 11.8605753,9.43433793 12.0093842,9.29637057 L12.0093842,9.29637057 L14.1507151,7.31224638 C14.5256744,6.96488505 14.3188594,6.35950381 13.8004757,6.28784455 L13.8004757,6.28784455 L10.8411853,5.87906098 C10.6353493,5.85067647 10.457415,5.72783201 10.3653884,5.55054511 L10.3653884,5.55054511 Z" id="Combined-Shape"></path>
        </g>
        <path d="M8.78621818,60.684322 L8.35305001,60.2260101 C8.20294142,60.075351 8.02762253,60 7.82749798,60 C7.62324591,60 7.45001101,60.075351 7.30751003,60.2260101 L4.50002023,63.1955787 L1.69255066,60.2260957 C1.55006992,60.0754366 1.37679455,60.0000856 1.17262341,60.0000856 C0.972397699,60.0000856 0.797119271,60.0754366 0.646990454,60.2260957 L0.219507754,60.6844076 C0.0731422739,60.8391115 0,61.0245035 0,61.2404126 C0,61.460345 0.0732232059,61.6436398 0.219487521,61.7902542 L3.98007275,65.767848 C4.11876992,65.9225732 4.29198458,66 4.5,66 C4.70411044,66 4.87936864,65.9225946 5.02559249,65.767848 L8.78619795,61.7902542 C8.92869892,61.6395095 9,61.4562361 9,61.2404126 C9,61.0285268 8.92871916,60.8432417 8.78621818,60.684322 Z" id="ic-chevron-down--copy" fill="#6C757D"></path>
        <path d="M109,72 L105.813559,67.7314286 C106.830508,67.1828571 107.457627,66.2571429 107.661017,65.0228571 L109,65.0228571 L109,63.3428571 L107.661017,63.3428571 C107.576271,62.7428571 107.355932,62.2285714 107.050847,61.7828571 L109,61.7828571 L109,60 L100,60 L100,61.8 L102.949153,61.8 C104.440678,61.8 105.40678,62.2971429 105.728814,63.3428571 L100,63.3428571 L100,65.0228571 L105.711864,65.0228571 C105.389831,66.0685714 104.423729,66.5828571 102.949153,66.5828571 L100,66.5828571 L100,68.3828571 L102.949153,68.3828571 C103.322034,68.3828571 103.677966,68.3657143 104,68.3142857 L106.728814,72 L109,72 Z" id="₹" fill="#4A4A4A" fill-rule="nonzero"></path>
        <g id="ic-professional" transform="translate(160.000000, 0.000000)">
            <circle id="Oval" fill="#D9F1E3" cx="15" cy="15" r="15"></circle>
            <path d="M12.8333333,17.136004 L10.0789095,14.4956687 C9.60345259,14.0399053 8.84099185,14.0399053 8.36553492,14.4956687 C7.87815503,14.9628613 7.87815503,15.7294464 8.36553492,16.196639 L11.976646,19.6581774 C12.452103,20.1139409 13.2145637,20.1139409 13.6900206,19.6581774 L21.6344651,12.0427928 C22.121845,11.5756002 22.121845,10.8090152 21.6344651,10.3418226 C21.1590081,9.88605914 20.3965474,9.88605914 19.9210905,10.3418226 L12.8333333,17.136004 Z" id="Path" fill="#0E9F49"></path>
        </g>
        <g id="checkbox" transform="translate(120.000000, 40.000000)" fill-rule="nonzero">
            <path d="M16.5,0 L2.5,0 C1.11928813,0 0,1.11928813 0,2.5 L0,16.5 C0,17.8807119 1.11928813,19 2.5,19 L16.5,19 C17.8807119,19 19,17.8807119 19,16.5 L19,2.5 C19,1.11928813 17.8807119,0 16.5,0 Z M2.5,1 L16.5,1 C17.3284271,1 18,1.67157288 18,2.5 L18,16.5 C18,17.3284271 17.3284271,18 16.5,18 L2.5,18 C1.67157288,18 1,17.3284271 1,16.5 L1,2.5 C1,1.67157288 1.67157288,1 2.5,1 Z" fill="#D1D6DF"></path>
            <path d="M2.5,1 L16.5,1 C17.3284271,1 18,1.67157288 18,2.5 L18,16.5 C18,17.3284271 17.3284271,18 16.5,18 L2.5,18 C1.67157288,18 1,17.3284271 1,16.5 L1,2.5 C1,1.67157288 1.67157288,1 2.5,1 Z" id="Path" fill="#FFFFFF"></path>
        </g>
        <path d="M67.0001129,40 C70.8659862,40 74,43.1337977 74,47.0001693 C74,50.8659483 70.8659862,54 67.0001129,54 C63.134042,54 60,50.8659483 60,47.0001693 C60,43.1337977 63.134042,40 67.0001129,40 Z M67.7695291,44.4422838 C67.4179757,44.4422838 67.0105249,44.575751 66.5238694,44.8503322 C66.0522817,45.1165046 65.5263485,45.5673302 64.9607706,46.1902804 C64.9164984,46.2390679 64.9118708,46.3120092 64.9496249,46.3660169 C64.9874355,46.4200527 65.0575542,46.440623 65.1185308,46.4157919 C65.3170925,46.3347523 66.3149803,45.9259703 66.460438,45.8346031 C66.5795412,45.7599405 66.6826454,45.7220449 66.7746887,45.722327 L66.7746887,45.722327 L66.7760572,45.7330037 L66.7760572,45.7330037 L66.7766639,45.7486536 C66.7766639,45.8346313 66.7589719,45.9364106 66.7242935,46.0506619 C65.8739514,48.8058135 65.4606033,50.494808 65.4606033,51.2142327 C65.4606033,51.4681307 65.5311735,51.6725358 65.6703107,51.8216917 C65.8121002,51.9738669 66.0033538,52.0510126 66.2387667,52.0510126 C66.4896424,52.0510126 66.7949766,51.9462141 67.172179,51.730635 C67.5371918,51.5220537 68.0943046,51.0632145 68.8754308,50.3277625 C68.9260236,50.2801601 68.9344604,50.2028733 68.8953237,50.145536 C68.8561869,50.0881988 68.781102,50.0677978 68.7184042,50.0975104 C68.0247784,50.4258735 67.2375292,50.7730292 67.0830139,50.8033627 C67.07912,50.799892 67.0729405,50.7935431 67.0648422,50.7825666 C67.0439054,50.7542084 67.0337191,50.7171593 67.0337191,50.6692747 C67.0337191,50.2769151 67.3298546,49.0833293 67.9138581,47.1218417 C68.4062698,45.4737903 68.4632113,45.1325602 68.4632113,45.0192683 C68.4632113,44.8443783 68.3962528,44.6966051 68.2695029,44.5918912 C68.1491017,44.492595 67.980873,44.4422838 67.7695291,44.4422838 Z M68.3395652,41.9490156 C68.0760201,41.9490156 67.8464763,42.0531652 67.6573954,42.2585861 C67.4713337,42.4606209 67.3769767,42.7085369 67.3769767,42.9954208 C67.3769767,43.2220892 67.4464747,43.4099308 67.5835238,43.5536973 C67.722407,43.6996364 67.8978309,43.7736218 68.1048577,43.7736218 C68.357624,43.7736218 68.5859263,43.6636313 68.7833875,43.4466978 C68.9774064,43.2335736 69.0757984,42.9830052 69.0757984,42.7019623 C69.0758267,42.4859882 69.0059336,42.3048058 68.868038,42.1633814 C68.7290702,42.0211387 68.5512478,41.9490156 68.3395652,41.9490156 Z" id="Combined-Shape" fill="#00559C" fill-rule="nonzero"></path>
        <path d="M87,73 L91,73 L91,70.8333333 L87,70.8333333 L87,73 Z M80,60 L80,62.1666667 L98,62.1666667 L98,60 L80,60 Z M83,67.5833333 L95,67.5833333 L95,65.4166667 L83,65.4166667 L83,67.5833333 Z" id="Shape" fill="#A3ADC0" fill-rule="nonzero"></path>
        <path d="M44.8333333,67.136004 L42.0789095,64.4956687 C41.6034526,64.0399053 40.8409919,64.0399053 40.3655349,64.4956687 C39.878155,64.9628613 39.878155,65.7294464 40.3655349,66.196639 L43.976646,69.6581774 C44.452103,70.1139409 45.2145637,70.1139409 45.6900206,69.6581774 L53.6344651,62.0427928 C54.121845,61.5756002 54.121845,60.8090152 53.6344651,60.3418226 C53.1590081,59.8860591 52.3965474,59.8860591 51.9210905,60.3418226 L44.8333333,67.136004 Z" id="tick" fill="#0E9F49"></path>
        <path d="M30.7387111,62.7983757 L30.2092833,62.2636785 C30.0258173,62.0879095 29.8115386,62 29.566942,62 C29.3173006,62 29.105569,62.0879095 28.9314012,62.2636785 L25.5000247,65.7281751 L22.068673,62.2637783 C21.8945299,62.0880093 21.6827489,62.0000999 21.4332064,62.0000999 C21.1884861,62.0000999 20.9742569,62.0880093 20.7907661,62.2637783 L20.2682873,62.7984756 C20.0893961,62.9789634 20,63.1952541 20,63.447148 C20,63.7037358 20.089495,63.9175798 20.2682625,64.0886299 L24.8645334,68.729156 C25.0340521,68.9096687 25.2457589,69 25.5,69 C25.7494683,69 25.9636728,68.9096937 26.1423908,68.729156 L30.7386864,64.0886299 C30.9128542,63.9127611 31,63.6989421 31,63.447148 C31,63.1999479 30.912879,62.983782 30.7387111,62.7983757 Z" id="ic-chevron-down" fill="#6C757D"></path>
        <path d="M116.5,40 L102.5,40 C101.119288,40 100,41.1192881 100,42.5 L100,56.5 C100,57.8807119 101.119288,59 102.5,59 L116.5,59 C117.880712,59 119,57.8807119 119,56.5 L119,42.5 C119,41.1192881 117.880712,40 116.5,40 Z M102.5,41 L116.5,41 C117.328427,41 118,41.6715729 118,42.5 L118,56.5 C118,57.3284271 117.328427,58 116.5,58 L102.5,58 C101.671573,58 101,57.3284271 101,56.5 L101,42.5 C101,41.6715729 101.671573,41 102.5,41 Z" id="Rectangle" fill="#D1D6DF" fill-rule="nonzero"></path>
        <path d="M29.5,40 C34.7467051,40 39,44.0294373 39,49 C39,53.9705627 34.7467051,58 29.5,58 C24.2532949,58 20,53.9705627 20,49 C20,44.0294373 24.2532949,40 29.5,40 Z M29.5,42 C25.4192293,42 22.1111111,45.1340068 22.1111111,49 C22.1111111,52.8659932 25.4192293,56 29.5,56 C33.5807707,56 36.8888889,52.8659932 36.8888889,49 C36.8888889,45.1340068 33.5807707,42 29.5,42 Z M29.3023795,44.2568047 L29.4450222,44.2645205 C29.883172,44.2792974 30.2570124,44.6531378 30.2717647,45.0905909 L30.3834896,48.1121805 L33.4101039,48.2189067 C33.8110431,48.2324287 34.1581323,48.5466158 34.2255174,48.9356141 L34.2367907,49.0433897 L34.2447791,49.1927386 C34.2597448,49.6439148 33.9141353,49.9895244 33.4622568,49.9745342 L30.3615803,49.8615265 L30.4746085,52.9627862 C30.489461,53.4031789 30.1384139,53.7542261 29.6937181,53.7391853 L29.5510754,53.7314694 C29.1129256,53.7166925 28.7390852,53.3428521 28.7243329,52.9053991 L28.612608,49.8838095 L25.5859937,49.7770832 C25.1478439,49.7623064 24.7740035,49.3884659 24.7594149,48.9546192 L24.7513224,48.8033704 C24.7364699,48.3629777 25.0875171,48.0119305 25.5281356,48.0267907 L28.6345306,48.1348275 L28.5214891,45.0332037 C28.5066365,44.592811 28.8576837,44.2417639 29.3023795,44.2568047 Z" id="ic-expand" fill="#00559C"></path>
        <path d="M49.5,40 C54.7467051,40 59,44.0294373 59,49 C59,53.9705627 54.7467051,58 49.5,58 C44.2532949,58 40,53.9705627 40,49 C40,44.0294373 44.2532949,40 49.5,40 Z M49.5,42 C45.4192293,42 42.1111111,45.1340068 42.1111111,49 C42.1111111,52.8659932 45.4192293,56 49.5,56 C53.5807707,56 56.8888889,52.8659932 56.8888889,49 C56.8888889,45.1340068 53.5807707,42 49.5,42 Z M53.7222222,48 C54.3051895,48 54.7777778,48.4477153 54.7777778,49 C54.7777778,49.5128358 54.3702909,49.9355072 53.8453223,49.9932723 L53.7222222,50 L45.2777778,50 C44.6948105,50 44.2222222,49.5522847 44.2222222,49 C44.2222222,48.4871642 44.6297091,48.0644928 45.1546777,48.0067277 L45.2777778,48 L53.7222222,48 Z" id="ic-collapse" fill="#00559C"></path>
        <g id="ic-close-md-grey" transform="translate(160.000000, 40.000000)" fill="#000000" fill-opacity="0.38">
            <g id="ic-close-sm-grey">
                <path d="M19.4831898,3.21610891 L12.5701584,10 L19.4831898,16.7838911 C20.1500417,17.4418605 20.1500417,18.5309132 19.4831898,19.1888826 L19.1719922,19.4838344 C18.5051403,20.1418037 17.3937205,20.1418037 16.7268686,19.4838344 L9.99166435,12.8814521 L3.25646013,19.506523 C2.58960822,20.1644923 1.47818839,20.1644923 0.811336482,19.506523 L0.500138927,19.2115712 C-0.166712976,18.5536018 -0.166712976,17.4645491 0.500138927,16.8065797 L7.41317033,10 L0.500138927,3.21610891 C-0.166712976,2.55813953 -0.166712976,1.46908678 0.500138927,0.811117413 L0.811336482,0.516165627 C1.47818839,-0.141803744 2.58960822,-0.141803744 3.25646013,0.516165627 L9.99166435,7.11854793 L16.7268686,0.493477028 C17.3937205,-0.164492343 18.5051403,-0.164492343 19.1719922,0.493477028 L19.4831898,0.788428815 C20.1722701,1.46908678 20.1722701,2.53545094 19.4831898,3.21610891 Z"></path>
            </g>
        </g>
        <path d="M87.0000362,40 L80,42.5714336 L80,49 C80,54.1428322 82.800029,56.0714336 87,58 C91.199971,56.0714336 94,54.1428322 94,49 L94,42.5714336 C94,42.5714336 87.0000362,40 87.0000362,40 Z M85.8333756,52.3750087 L82.3333575,49 L84.0833484,47.3125131 L85.883486,49.0483556 L89.6751874,45.3920816 L91.3750679,47.0312478 L85.8333756,52.3750087 Z" id="Shape" fill="#FFFFFF" fill-rule="nonzero"></path>
        <path d="M308.571429,145.142857 L306.742857,145.142857 L306.057232,144.457143 C308.342947,141.942857 309.714375,138.514286 309.714375,134.857143 C309.714286,126.628571 303.085714,120 294.857143,120 C286.628571,120 280,126.628571 280,134.857143 C280,143.085714 286.628571,149.714286 294.857143,149.714286 C298.514286,149.714286 301.942857,148.342857 304.457143,146.057143 L305.142857,146.742768 L305.142857,148.571339 L316.571429,160 L320,156.571429 L308.571429,145.142857 Z M294.857143,145.142857 C289.142857,145.142857 284.571429,140.571429 284.571429,134.857143 C284.571429,129.142857 289.142857,124.571429 294.857143,124.571429 C300.571429,124.571429 305.142857,129.142857 305.142857,134.857143 C305.142857,140.571429 300.571429,145.142857 294.857143,145.142857 Z" id="Shape" fill="#0A2134" fill-rule="nonzero"></path>
        <g id="ic-like" transform="translate(260.000000, 0.000000)" fill-rule="nonzero">
            <path d="M45,33.2 C45,31.55 43.65,30.2 42,30.2 C43.65,30.2 45,28.85 45,27.2 C45,25.55 43.65,24.2 42,24.2 L29.7001,24.2 C31.53,18.7099 31.5,16.96 31.5,13.6 C31.5,11.1039 29.4534,9.1 27,9.1 L26.1,9.1 C25.53,9.1 24.81,9.5501 24.6599,10.24 C23.1758,16.0181 20.8555,22.6484 15,23.9914 L15,45.6976 L20.1899,47.4199 C21.7199,47.9298 23.31,48.1999 24.93,48.1999 L39,48.1999 C40.6569,48.1999 42,46.8567 42,45.2 C42,43.5431 40.6569,42.2 39,42.2 L42,42.2 C43.65,42.2 45,40.85 45,39.2 C45,37.55 43.65,36.2 42,36.2 C43.65,36.2 45,34.85 45,33.2 Z" id="Path" fill="#D1D6DF"></path>
            <path d="M7.5,21.2 C9.9814,21.2 12,23.2186 12,25.7 L12,25.7 L12,46.7 C12,49.1814 9.9814,51.2 7.5,51.2 L7.5,51.2 L1.5,51.2 C0.6709,51.2 0,50.5291 0,49.7 L0,49.7 L0,22.7 C0,21.8709 0.6709,21.2 1.5,21.2 L1.5,21.2 Z M7.5,42.2 C6.6716,42.2 6,42.8714 6,43.7 C6,44.5284 6.6716,45.2 7.5,45.2 C8.3284,45.2 9,44.5284 9,43.7 C9,42.8714 8.3284,42.2 7.5,42.2 Z" id="Combined-Shape" fill="#0A2134"></path>
            <path d="M20.6353,6.6142 L18.5142,4.4931 C17.9283,3.9072 16.979,3.9072 16.3931,4.4931 C15.8072,5.079 15.8072,6.0283 16.3931,6.6142 L18.5142,8.7353 C19.1001,9.3212 20.0493,9.3212 20.6353,8.7353 C21.2212,8.1494 21.2212,7.2001 20.6353,6.6142 Z" id="Path" fill="#BFCC29"></path>
            <path d="M37.6069,4.4931 C37.021,3.9072 36.0717,3.9072 35.4858,4.4931 L33.3647,6.6142 C32.7788,7.2001 32.7788,8.1494 33.3647,8.7353 C33.9506,9.3212 34.8999,9.3212 35.4858,8.7353 L37.6069,6.6142 C38.1928,6.0283 38.1928,5.079 37.6069,4.4931 Z" id="Path" fill="#BFCC29"></path>
            <path d="M27,0 C26.1599,0 25.5,0.6599 25.5,1.5 L25.5,4.6 C25.5,5.4401 26.1599,6.1 27,6.1 C27.8401,6.1 28.5,5.4401 28.5,4.6 L28.5,1.5 C28.5,0.6599 27.8401,0 27,0 Z" id="Path" fill="#BFCC29"></path>
        </g>
        <g id="tick" transform="translate(260.000000, 60.000000)" fill-rule="nonzero">
            <path d="M29.8221081,4.05405405e-05 C46.2922703,4.05405405e-05 59.6440541,13.3519459 59.6440541,29.8221081 C59.6440541,46.2922703 46.2922703,59.6440541 29.8221081,59.6440541 C13.3519459,59.6440541 3.84644107e-05,46.2922703 3.84644107e-05,29.8221081 L3.84644107e-05,29.8221081 C-0.0467027027,13.3986486 13.229027,0.047027027 29.6523243,4.05405405e-05 C29.7089189,4.05405405e-05 29.7655135,4.05405405e-05 29.8221081,4.05405405e-05 Z" id="Path" fill="#0E9F49"></path>
            <polygon id="Path" fill="#FFFFFF" points="46.3427027 21.6040541 25.1623784 42.7843784 13.3013514 31.0081622 18.1305405 26.2637838 25.1623784 33.210973 41.5136757 16.8596757"></polygon>
        </g>
        <path d="M10.5115702,84.1797935 L10.5115702,92.2656283 C10.5115702,93.1571173 9.78630375,93.8827852 8.89441325,93.8827852 L8.89441325,93.8827852 L2.42573538,93.8827852 C1.53384488,93.8827852 0.80857846,93.1571173 0.80857846,92.2656283 L0.80857846,92.2656283 L0.80857846,84.1797935 L10.5115702,84.1797935 Z M7.27725633,80 L7.27725633,80.8085785 L11.3201737,80.8085785 L11.3201737,82.4257354 L-8.36664071e-13,82.4257354 L-8.36664071e-13,80.8085785 L4.0429174,80.8085785 L4.0429174,80 L7.27725633,80 Z" id="Combined-Shape" fill="#A3ADC0"></path>
        <path d="M212.5,0 C219.403559,0 225,5.59644063 225,12.5 C225,19.4035594 219.403559,25 212.5,25 C205.596441,25 200,19.4035594 200,12.5 C200,5.59644063 205.596441,0 212.5,0 Z M212.5,2.4 C206.921924,2.4 202.4,6.92192403 202.4,12.5 C202.4,18.078076 206.921924,22.6 212.5,22.6 C218.078076,22.6 222.6,18.078076 222.6,12.5 C222.6,6.92192403 218.078076,2.4 212.5,2.4 Z M217.069584,8.30764033 C217.51108,7.89745322 218.219079,7.89745322 218.660575,8.30764033 C219.113142,8.72811364 219.113142,9.41804021 218.660575,9.83851352 L218.660575,9.83851352 L211.283591,16.6923597 C210.842095,17.1025468 210.134096,17.1025468 209.6926,16.6923597 L209.6926,16.6923597 L206.339425,13.5769751 C205.886858,13.1565017 205.886858,12.4665752 206.339425,12.0461019 C206.780921,11.6359148 207.48892,11.6359148 207.930416,12.0461019 L207.930416,12.0461019 L210.488095,14.4224036 Z" id="Combined-Shape" fill="#0E9F49" fill-rule="nonzero"></path>
        <path d="M31.0209649,86.488516 L35.916097,91.1246287 L34.3755219,92.5836863 L32.1039111,90.4331892 L32.1040486,98 L29.9378813,98 L29.9371556,90.4322162 L27.666408,92.5836863 L26.1258328,91.1246287 L31.0209649,86.488516 Z M30.9371052,80 C34.5810627,80 37.6014285,82.6458416 37.9424868,86.0369431 L37.9617778,86.2854054 C40.116287,86.5867456 41.7803048,88.2590777 41.9798962,90.3121239 L41.9949378,90.5186609 L42,90.7275167 C42,93.0604794 40.1154628,94.9913532 37.6996068,95.2013718 L37.4850987,95.2154034 L37.2687617,95.2200968 L35.5567347,95.2197719 L35.5567347,93.1446783 L37.2688083,93.1450032 C38.6855705,93.1450032 39.8337906,92.0575397 39.8337906,90.7274769 C39.8337906,89.5054328 38.8615226,88.4802404 37.5989758,88.3293796 L37.4327057,88.3147162 L37.2688083,88.3099505 L35.8083559,88.3099505 L35.8083559,86.6767358 C35.8083559,84.1422857 33.6255438,82.0749742 30.9371052,82.0749742 C28.5835916,82.0749742 26.5974325,83.6393879 26.1572227,85.7811519 L26.1194874,85.9901886 L26.0915442,86.2014932 L25.9984522,87.0604508 L25.0996924,87.1285758 C23.4532164,87.2533819 22.1661674,88.5756286 22.1661674,90.1318089 C22.1661674,91.6702578 23.4004653,92.9565976 24.9951789,93.1258984 L25.1738081,93.1400688 L25.3553058,93.145043 L26.4851531,93.1448399 L26.4851531,95.2198426 L25.3601396,95.2200968 C22.4069606,95.2200968 20,92.9404715 20,90.1318089 C20,88.8421761 20.5096406,87.6115776 21.4335409,86.6681112 C22.1229189,85.9642814 22.9985073,85.464454 23.9644897,85.21805 L24.0753778,85.1917838 L24.105621,85.0682492 C24.392397,83.9688706 24.9701927,82.9583428 25.7851681,82.1281737 L25.993822,81.9244418 L26.2121714,81.7285426 C27.5086881,80.6136329 29.1867433,80 30.9371052,80 Z" id="ic-cloud" fill="#00559C" fill-rule="nonzero"></path>
        <path d="M212.5,40 C219.403559,40 225,45.5964406 225,52.5 C225,59.4035594 219.403559,65 212.5,65 C205.596441,65 200,59.4035594 200,52.5 C200,45.5964406 205.596441,40 212.5,40 Z M212.5,42.5 C206.977153,42.5 202.5,46.9771525 202.5,52.5 C202.5,58.0228475 206.977153,62.5 212.5,62.5 C218.022847,62.5 222.5,58.0228475 222.5,52.5 C222.5,46.9771525 218.022847,42.5 212.5,42.5 Z M212.5,55.4999451 C213.878554,55.4999451 215,56.5092584 215,57.7499725 C214.999945,58.9907366 213.878554,60 212.5,60 C211.121446,60 210,58.9906867 210,57.7499725 C210,56.5092584 211.121446,55.4999451 212.5,55.4999451 Z M212.5,45 C213.420498,45 214.16663,45.671527 214.16663,46.499985 L214.16663,52.500025 C214.16663,53.3283831 213.420498,54 212.5,54 C211.579502,54 210.83337,53.3283332 210.83337,52.500025 L210.83337,46.499985 C210.833315,45.671527 211.579502,45 212.5,45 Z" id="Combined-Shape" fill="#CC2314" fill-rule="nonzero"></path>
        <path d="M64.4880952,66.4224036 L61.930416,64.0461019 C61.4889203,63.6359148 60.780921,63.6359148 60.3394253,64.0461019 C59.8868582,64.4665752 59.8868582,65.1565017 60.3394253,65.5769751 L63.6925999,68.6923597 C64.1340956,69.1025468 64.8420949,69.1025468 65.2835906,68.6923597 L72.6605747,61.8385135 C73.1131418,61.4180402 73.1131418,60.7281136 72.6605747,60.3076403 C72.219079,59.8974532 71.5110797,59.8974532 71.069584,60.3076403 L64.4880952,66.4224036 Z" id="Path" stroke="#0E9F49" stroke-width="0.928571429" fill="#0E9F49"></path>
        <g id="Group" transform="translate(120.000000, 60.000000)">
            <path d="M16.5,0 L2.5,0 C1.11928813,0 0,1.11928813 0,2.5 L0,16.5 C0,17.8807119 1.11928813,19 2.5,19 L16.5,19 C17.8807119,19 19,17.8807119 19,16.5 L19,2.5 C19,1.11928813 17.8807119,0 16.5,0 Z" id="Path" fill="#3489D7" fill-rule="nonzero"></path>
            <path d="M8.14285714,10.7088032 L5.78192245,8.59653499 C5.37438794,8.23192423 4.72085016,8.23192423 4.31331565,8.59653499 C3.89556145,8.97028904 3.89556145,9.58355711 4.31331565,9.95731116 L7.40855374,12.7265419 C7.81608825,13.0911527 8.46962603,13.0911527 8.87716054,12.7265419 L15.6866844,6.63423424 C16.1044385,6.26048019 16.1044385,5.64721212 15.6866844,5.27345807 C15.2791498,4.90884731 14.6256121,4.90884731 14.2180776,5.27345807 L8.14285714,10.7088032 Z" id="Path" stroke="#FFFFFF" stroke-width="0.923076923" fill="#FFFFFF"></path>
        </g>
    </g>
</svg>