<?xml version="1.0" encoding="UTF-8"?>
<svg width="40px" height="40px" viewBox="0 0 40 40" version="1.1" xmlns="http://www.w3.org/2000/svg" xmlns:xlink="http://www.w3.org/1999/xlink">
    <!-- Generator: Sketch 63.1 (92452) - https://sketch.com -->
    <title>illus-searching</title>
    <desc>Created with Sketch.</desc>
    <g id="Page-1" stroke="none" stroke-width="1" fill="none" fill-rule="evenodd">
        <g id="Loader01" transform="translate(-415.000000, -340.000000)" fill="#0A2134" fill-rule="nonzero">
            <g id="Group" transform="translate(185.000000, 255.000000)">
                <path d="M258.571429,110.142857 L256.742857,110.142857 L256.057232,109.457143 C258.342947,106.942857 259.714375,103.514286 259.714375,99.8571429 C259.714286,91.6285714 253.085714,85 244.857143,85 C236.628571,85 230,91.6285714 230,99.8571429 C230,108.085714 236.628571,114.714286 244.857143,114.714286 C248.514286,114.714286 251.942857,113.342857 254.457143,111.057143 L255.142857,111.742768 L255.142857,113.571339 L266.571429,125 L270,121.571429 L258.571429,110.142857 Z M244.857143,110.142857 C239.142857,110.142857 234.571429,105.571429 234.571429,99.8571429 C234.571429,94.1428571 239.142857,89.5714286 244.857143,89.5714286 C250.571429,89.5714286 255.142857,94.1428571 255.142857,99.8571429 C255.142857,105.571429 250.571429,110.142857 244.857143,110.142857 Z" id="illus-searching"></path>
            </g>
        </g>
    </g>
</svg>